<svg xmlns="http://www.w3.org/2000/svg" xmlns:xlink="http://www.w3.org/1999/xlink" width="545" height="246" viewBox="0 0 545 246"><defs><clipPath id="a"><rect x="1" y="1" width="543" height="244" fill="none"/></clipPath></defs><title>philipsvanhorne-logo</title><polygon points="270.54 45.63 282.12 43.3 282.12 69.68 295.39 67 295.38 40.62 306.95 38.29 306.89 101.54 295.32 103.88 295.4 76.39 282.14 79.07 282.06 106.55 270.49 108.88 270.54 45.63" fill="#4a462a"/><polygon points="323.29 35 334.86 32.66 334.8 95.92 323.23 98.25 323.29 35" fill="#4a462a"/><polygon points="351.1 29.39 362.67 27.06 362.59 80.92 380.44 77.32 380.46 86.71 351.04 92.64 351.1 29.39" fill="#4a462a"/><polygon points="388.43 21.86 400 19.53 399.95 82.78 388.37 85.11 388.43 21.86" fill="#4a462a"/><g clip-path="url(#a)"><path d="M451.84,22.45l0,12c0,9.59-6,14.58-17.56,16.92l-6.48,1.31-.06,24.49-11.57,2.33.06-63.25,18.05-3.64c9.57-1.93,17.59.25,17.54,9.83m-11.55,4c0-4.52-2.61-5.25-6.4-4.49l-6.09,1.22,0,20.32,6.09-1.23c3.79-.76,6.34-2.54,6.36-7.06Z" fill="#4a462a"/><path d="M485.46,24.89l.08-8.87c-.07-4-2.55-4.9-5.94-4.22s-5.9,2.64-5.83,6.59l-.07,4.35c0,3.25,1.08,4.84,4.4,5.89l8.19,2.5c6.86,2.14,10.77,4.06,10.72,10.49l0,9.13c0,9.76-5.64,14.33-17.21,16.66l-.2,0c-9.58,1.93-17.3.14-17.31-9.7l.06-11,11.37-2.29,0,9.59c.05,3.87,2.48,5.1,6,4.4s6.05-2.94,6-6.81l0-5c0-3.44-1.21-5-4.63-6L473,38.07c-6-1.86-10.63-4.9-10.62-10.51V19.25C462.41,9.84,469,4.9,479.56,2.77l.2,0c8.58-1.73,17.16.16,17.07,9.57v10.3Z" fill="#4a462a"/><polygon points="318.47 108.24 318.47 134.61 331.74 131.94 331.74 105.56 343.3 103.23 343.25 166.48 331.68 168.81 331.76 141.34 318.5 144.01 318.41 171.49 306.85 173.82 306.9 110.57 318.47 108.24" fill="#4a462a"/><path d="M376.21,95.88l.8-.16c9.58-1.93,17.49.27,17.54,9.83l-.05,38c-.05,9.58-6,14.58-17.56,16.91l-.8.16c-9.58,1.93-17.59-.25-17.54-9.83l.05-38c0-9.67,6-14.58,17.56-16.91m.34,55.4c3.79-.76,6.34-2.54,6.37-7.06l.08-34.71c-.07-4.5-2.61-5.26-6.4-4.49s-6.43,2.56-6.37,7.06l-.08,34.71c0,4.52,2.61,5.25,6.4,4.49" fill="#4a462a"/><path d="M445.39,96v11.29c0,6.23-2.55,10.54-7.47,13.43l9.84,24.67-11.48,2.31-8.76-23.44-6.18,1.24,0,25.21-11.57,2.33.06-63.25,18.05-3.64c9.57-1.93,17.59.25,17.54,9.84m-18-.54-6.08,1.22,0,19.78,6.08-1.23c3.79-.77,6.34-2.54,6.36-7.07V100c0-4.52-2.61-5.25-6.4-4.49" fill="#4a462a"/><polygon points="460.11 142.92 460.17 79.67 471.54 77.38 486.37 113.5 486.4 74.38 496.97 72.25 496.91 135.5 486.14 137.68 470.73 99.68 470.68 140.79 460.11 142.92" fill="#4a462a"/><polygon points="513.07 132.25 513.12 69 543.74 62.82 543.73 72.04 524.68 75.88 524.73 93.22 540.69 90 540.68 99.22 524.72 102.44 524.65 120.7 544 116.8 543.98 126.01 513.07 132.25" fill="#4a462a"/><path d="M234.7,91.61l6.48-1.31C252.75,88,258.7,83,258.74,73.39l0-12c0-9.59-8-11.76-17.54-9.83l-18.05,3.64-.06,63.25,11.57-2.33Zm6.06-30.76c3.79-.76,6.42,0,6.41,4.49v8.77c0,4.52-2.57,6.3-6.37,7.06l-6.08,1.22,0-20.32Z" fill="#4a462a"/><polygon points="240.82 130.69 232.99 156.65 225.82 133.82 222.2 134.57 231.29 162.97 234.65 162.26 244.6 129.91 240.82 130.69" fill="#4a462a"/><path d="M254.09,127.93l-10.38,32.44,3.78-.78,2.6-8.26,11-2.29,2.34,7.23,3.62-.76-9.63-28.28Zm6.15,18.47-9.16,1.91,4.79-15.12Z" fill="#4a462a"/><polygon points="287.97 120.88 287.64 144.45 274.26 123.73 270.95 124.42 270.52 154.8 274.1 154.06 274.44 130.47 287.94 151.18 291.11 150.51 291.55 120.14 287.97 120.88" fill="#4a462a"/><polygon points="199.27 228.63 21.22 182.37 1 101.11 199.27 12.69 199.27 228.63" fill="#f39600"/><polygon points="138.38 167.19 125.03 163.46 101.23 177.49 76.73 178.43 105.96 189.1 138.94 177.48 167.55 177.49 180.58 158.69 166.19 165.31 148.85 161.1 138.38 167.19" fill="#4a462a"/><polygon points="127.23 97.05 150.63 149.85 138.16 155.84 127.23 97.05" fill="#4a462a"/><polygon points="130.6 87.77 146.66 69.94 169.81 71.71 172.33 84.95 148.89 77.37 130.6 87.77" fill="#4a462a"/><polygon points="113.42 81.83 113.42 88.5 79.19 85.02 55.49 95.44 78.12 72.84 113.42 81.83" fill="#4a462a"/><polygon points="169.81 64.52 154.64 28.55 134.61 24.48 129.05 66.13 129.05 69.94 145.76 58.91 169.81 64.52" fill="#4a462a"/><polygon points="170.7 155.84 158.1 149.29 167.68 130.28 169.81 109.97 174.78 129.24 170.7 155.84" fill="#4a462a"/><polygon points="130.6 150.65 123.26 146.94 111.56 152.63 128.98 156.1 130.6 150.65" fill="#4a462a"/><path d="M105.69,102.47,85,96.74,63.53,110.4,81,108.45s1,7.67,9.07,4.94c3.39-1.15,3.64-6.69,3.64-6.69Z" fill="#4a462a"/><path d="M138.39,99.44c.17-.23,13-10.95,13-10.95l19.7,8.12-10.33.83s0,6.87-5.27,8c-4.47,1-7.45-3.47-7.05-4.49Z" fill="#4a462a"/><polyline points="63.53 198.1 142.11 245 167.7 184.86 138.93 206.59 100.13 198.1 71.43 184.86" fill="#4a462a"/><polygon points="125.62 187.01 138.24 187.99 147.62 183.66 137.66 197.11 125.62 187.01" fill="#4a462a"/><polygon points="67.67 181.29 40.49 149.01 55.49 192.07 67.67 181.29" fill="#4a462a"/></g></svg>